<svg id="Layer_1" data-name="Layer 1" xmlns="http://www.w3.org/2000/svg" viewBox="0 0 330.24062 356.48098"><defs><style>.cls-1,.cls-2,.cls-3{fill:none;stroke:#231f20;stroke-miterlimit:10;}.cls-1{stroke-width:12px;}.cls-2{stroke-width:3px;}.cls-3{stroke-width:4px;}</style></defs><path class="cls-1" d="M345.8,481.09a47.67041,47.67041,0,0,1-10.21,1.1c-1.11005,0-2.21-.04-3.31-.12A97.12254,97.12254,0,0,0,345.8,481.09Z" transform="translate(-158.8294 -183.17899)"/><path class="cls-1" d="M381.44,453.68a100.05765,100.05765,0,0,1-1.26,15.87,98.67394,98.67394,0,0,1-34.36,11.54,47.809,47.809,0,0,0,35.47-32.78C381.39,450.08,381.44,451.88,381.44,453.68Z" transform="translate(-158.8294 -183.17899)"/><path class="cls-2" d="M307.11,593.3" transform="translate(-158.8294 -183.17899)"/><path class="cls-1" d="M186.36,424.36c.46,1.62.96,3.24,1.48,4.84A151.213,151.213,0,0,0,323.35,533.42q4.185.24,8.41.24,5.025,0,9.97-.33A151.26981,151.26981,0,0,0,480.11,412.31" transform="translate(-158.8294 -183.17899)"/><path class="cls-1" d="M295.02,317.24" transform="translate(-158.8294 -183.17899)"/><path class="cls-1" d="M233.29,366.48a100.06462,100.06462,0,0,0-1.26,15.87,98.98625,98.98625,0,0,0,1.18994,15.4v.01a86.47446,86.47446,0,0,0-21.85,10.05,101.999,101.999,0,0,1,9.01-32.78l.01-.01a102.44174,102.44174,0,0,1,17.36-26.01A97.91017,97.91017,0,0,0,233.29,366.48Z" transform="translate(-158.8294 -183.17899)"/><path class="cls-1" d="M345.8,481.09a47.67041,47.67041,0,0,1-10.21,1.1c-1.11005,0-2.21-.04-3.31-.12A97.12254,97.12254,0,0,0,345.8,481.09Z" transform="translate(-158.8294 -183.17899)"/><path class="cls-1" d="M381.44,453.68a100.05765,100.05765,0,0,1-1.26,15.87,98.67394,98.67394,0,0,1-34.36,11.54,47.809,47.809,0,0,0,35.47-32.78C381.39,450.08,381.44,451.88,381.44,453.68Z" transform="translate(-158.8294 -183.17899)"/><path class="cls-2" d="M345.27,159.63" transform="translate(-158.8294 -183.17899)"/><path class="cls-1" d="M381.44,453.68a100.05765,100.05765,0,0,1-1.26,15.87,98.67394,98.67394,0,0,1-34.36,11.54,47.809,47.809,0,0,0,35.47-32.78C381.39,450.08,381.44,451.88,381.44,453.68Z" transform="translate(-158.8294 -183.17899)"/><path class="cls-1" d="M345.8,481.09a47.67041,47.67041,0,0,1-10.21,1.1c-1.11005,0-2.21-.04-3.31-.12A97.12254,97.12254,0,0,0,345.8,481.09Z" transform="translate(-158.8294 -183.17899)"/><path class="cls-1" d="M381.44,453.68a100.05765,100.05765,0,0,1-1.26,15.87,98.67394,98.67394,0,0,1-34.36,11.54,47.809,47.809,0,0,0,35.47-32.78C381.39,450.08,381.44,451.88,381.44,453.68Z" transform="translate(-158.8294 -183.17899)"/><path class="cls-1" d="M345.8,481.09a47.67041,47.67041,0,0,1-10.21,1.1c-1.11005,0-2.21-.04-3.31-.12A97.12254,97.12254,0,0,0,345.8,481.09Z" transform="translate(-158.8294 -183.17899)"/><path class="cls-1" d="M381.44,453.68a100.05765,100.05765,0,0,1-1.26,15.87,98.67394,98.67394,0,0,1-34.36,11.54,47.809,47.809,0,0,0,35.47-32.78C381.39,450.08,381.44,451.88,381.44,453.68Z" transform="translate(-158.8294 -183.17899)"/><path class="cls-1" d="M172.39,310.95a36.43175,36.43175,0,0,1,19.43,13.76,150.41127,150.41127,0,0,0-11.29,52.71" transform="translate(-158.8294 -183.17899)"/><path class="cls-1" d="M320.85,283.21c-7.11-17.12-7.96-34.82-5.6-51.28M214.22,287.05c36.13-14.78,56.91-5.2,68.69,8.34A64.98135,64.98135,0,0,1,295.02,317.24,102.5286,102.5286,0,0,0,237.75,349v.01a97.91017,97.91017,0,0,0-4.46,17.47,100.06462,100.06462,0,0,0-1.26,15.87,98.98625,98.98625,0,0,0,1.18994,15.4c19.28-5.81,37.81006-4.16,51.07-1.29a100.35374,100.35374,0,0,1,22.82-2.62c1.08,0,2.15.02,3.23.06h.01a98.78834,98.78834,0,0,1,38.05,8.87,99.54325,99.54325,0,0,0-38.98,71.61c-.13,1.69-.21,3.4-.26,5.13a100.17967,100.17967,0,0,0,22.6,2.57c.15,0,.31,0,.46-.01.02,0,.04.01.06006,0a97.12254,97.12254,0,0,0,13.52-.98h.02a47.809,47.809,0,0,0,35.47-32.78c.1,1.77.15,3.57.15,5.37a100.05765,100.05765,0,0,1-1.26,15.87,100.21824,100.21824,0,0,0,34.25-31.4,103.236,103.236,0,0,0-4.55-55.79" transform="translate(-158.8294 -183.17899)"/><path class="cls-1" d="M427.44766,261.73172c5.6875,10.77426,12.51892,15.379,20.19718,23.43912q.45707.47977.91812.9765A106.11105,106.11105,0,0,1,468.28,317.03c0,.00009,14.77359,30.89017,14.79,65.32.00363,7.60992-.75251,15.18866-.75251,15.18875Q481.57127,405.03309,480.11,412.3v.01A151.26981,151.26981,0,0,1,341.73,533.33q-4.95.33-9.97.33-4.23,0-8.41-.24a150.17891,150.17891,0,0,1-58.92-15.53q-.06-4.68007.13-9.24a102.27719,102.27719,0,0,0,49.04,12.43q1.725,0,3.42-.06A102.02634,102.02634,0,0,0,366.27,506.57v-.01a103.05665,103.05665,0,0,0,37.27-38.52,101.69789,101.69789,0,0,0,10.89-29.89A102.73307,102.73307,0,0,0,416.35,418.32c0-.00009-.0123-18.16153-6.47-35.96-12.55783-34.61161-41.63818-52.29926-50.8193-57.98575-1.20914-.7489-1.145-.68045-2.17535-1.32965-6.2305-3.92582-25.7833-16.32926-36.03537-39.83463-9.17975-21.04678-7.1764-40.24515-5.6-51.28a150.33928,150.33928,0,0,1,9.38-34.13,100.04423,100.04423,0,0,0,28.98,34.81,98.93806,98.93806,0,0,0,17.4,10.59q1.29-3.18007,2.77-6.25a101.65317,101.65317,0,0,1,14.74-22.27c.00024.00046,13.27823,29.473,27.259,41.809q2.69329-7.15535,5.38663-14.3107a63.12515,63.12515,0,0,0,1.44253,7.10476A58.88509,58.88509,0,0,0,427.44766,261.73172Z" transform="translate(-158.8294 -183.17899)"/><path class="cls-1" d="M430.26,267.49" transform="translate(-158.8294 -183.17899)"/><path class="cls-1" d="M345.8,481.09a47.67041,47.67041,0,0,1-10.21,1.1c-1.11005,0-2.21-.04-3.31-.12A97.12254,97.12254,0,0,0,345.8,481.09Z" transform="translate(-158.8294 -183.17899)"/><path class="cls-1" d="M295.02,317.24A102.5286,102.5286,0,0,0,237.75,349v.01a102.44174,102.44174,0,0,0-17.36,26.01l-.01.01a101.999,101.999,0,0,0-9.01,32.78v.01a98.98369,98.98369,0,0,0-23.53,21.38c-.52-1.6-1.02-3.22-1.48-4.84a151.26347,151.26347,0,0,1-5.91-42.01c0-1.65.03-3.29.08-4.93a150.41127,150.41127,0,0,1,11.29-52.71,36.43175,36.43175,0,0,0-19.43-13.76c.42-.3.85-.6,1.28-.9,15.3-10.74,28.74-18.17,40.54-22.99a.00979.00979,0,0,1,.01-.01c36.13-14.78,56.91-5.2,68.69,8.34A64.98135,64.98135,0,0,1,295.02,317.24Z" transform="translate(-158.8294 -183.17899)"/><path class="cls-1" d="M303.99,402.69a226.83231,226.83231,0,0,0-15.62,24.57.0347.0347,0,0,0-.01.02,205.172,205.172,0,0,0-15.43,35.6,172.92363,172.92363,0,0,0-8.37,45.77q-.195,4.56006-.13,9.24a151.77536,151.77536,0,0,1-76.59-88.69,98.98369,98.98369,0,0,1,23.53-21.38v-.01a86.47446,86.47446,0,0,1,21.85-10.05v-.01c19.28-5.81,37.81006-4.16,51.07-1.29a112.15577,112.15577,0,0,1,16.76,5C302.95,402.2,303.99,402.69,303.99,402.69Z" transform="translate(-158.8294 -183.17899)"/><path class="cls-1" d="M348.4,402.77a99.54325,99.54325,0,0,0-38.98,71.61c-.13,1.69-.21,3.4-.26,5.13a99.10241,99.10241,0,0,1-36.23-16.63,205.172,205.172,0,0,1,15.43-35.6.0347.0347,0,0,1,.01-.02,226.83231,226.83231,0,0,1,15.62-24.57s-1.04-.49-2.94-1.23a112.15577,112.15577,0,0,0-16.76-5,100.35374,100.35374,0,0,1,22.82-2.62c1.08,0,2.15.02,3.23.06h.01A98.78834,98.78834,0,0,1,348.4,402.77Z" transform="translate(-158.8294 -183.17899)"/><path class="cls-1" d="M345.8,481.09a47.67041,47.67041,0,0,1-10.21,1.1c-1.11005,0-2.21-.04-3.31-.12A97.12254,97.12254,0,0,0,345.8,481.09Z" transform="translate(-158.8294 -183.17899)"/><path class="cls-1" d="M381.44,453.68a100.05765,100.05765,0,0,1-1.26,15.87,98.67394,98.67394,0,0,1-34.36,11.54,47.809,47.809,0,0,0,35.47-32.78C381.39,450.08,381.44,451.88,381.44,453.68Z" transform="translate(-158.8294 -183.17899)"/><path class="cls-1" d="M422.3121,260.17834" transform="translate(-158.8294 -183.17899)"/><path class="cls-1" d="M378.851,338.59311S337.30118,277.21985,388.52,214.68" transform="translate(-158.8294 -183.17899)"/><line class="cls-1" x1="256.94959" y1="73.31005" x2="283.87759" y2="97.07631"/><path class="cls-3" d="M597.95544,351.78345" transform="translate(-158.8294 -183.17899)"/></svg>