<svg xmlns="http://www.w3.org/2000/svg" xmlns:xlink="http://www.w3.org/1999/xlink" viewBox="0 0 117.34 127.26"><defs><style>.cls-1,.cls-2{fill:none;}.cls-2,.cls-6,.cls-7{stroke:#1d75bc;stroke-miterlimit:10;stroke-width:0.25px;}.cls-3{fill:#6d6e71;}.cls-4{fill:url(#linear-gradient);}.cls-5{fill:url(#linear-gradient-3);}.cls-6,.cls-9{fill:url(#linear-gradient-4);}.cls-10,.cls-7{fill:url(#linear-gradient-5);}.cls-8{fill:#58595b;}</style><linearGradient id="linear-gradient" x1="34.65" y1="46.79" x2="34.97" y2="46.79" gradientUnits="userSpaceOnUse"><stop offset="0" stop-color="#2861a7"/><stop offset="0.99" stop-color="#2a3990"/></linearGradient><linearGradient id="linear-gradient-3" x1="38.98" y1="47.04" x2="39.03" y2="47.04" xlink:href="#linear-gradient"/><linearGradient id="linear-gradient-4" x1="116.9" y1="72.25" x2="117.48" y2="71.24" gradientUnits="userSpaceOnUse"><stop offset="0" stop-color="#2861a7"/><stop offset="0.99" stop-color="#26879d"/></linearGradient><linearGradient id="linear-gradient-5" x1="117" y1="73.46" x2="117.16" y2="73.46" xlink:href="#linear-gradient-4"/></defs><g id="Layer_2" data-name="Layer 2"><g id="Colorize"><g id="Blue_gradient_copy" data-name="Blue gradient copy"><path class="cls-1" d="M91.53,21.53l0,0a.36.36,0,0,1,0,.09s0,0,0,0l-.31-.28-.34-.31C91.09,21.23,91.31,21.38,91.53,21.53Z"/><path class="cls-1" d="M64.47,120.18a4.42,4.42,0,0,1-.48.15h0l-.41.11.41-.12Z"/><path class="cls-1" d="M91.56,21.55a.36.36,0,0,1,0,.09s0,0,0,0l-.31-.28-.34-.31c.23.14.45.29.67.44Z"/><polygon class="cls-1" points="34.97 46.8 34.65 46.78 34.86 46.78 34.97 46.8"/><path class="cls-1" d="M91.56,21.55a.36.36,0,0,1,0,.09s0,0,0,0l-.31-.28-.34-.31c.23.14.45.29.67.44Z"/><path class="cls-1" d="M39,47.05h0Z"/><path class="cls-2" d="M117.16,72.4c0,.66-.07,1.37-.13,2.13h0C117.07,73.82,117.12,73.11,117.16,72.4Z"/><path class="cls-2" d="M117.21,71.09c0,.24,0,.49,0,.75s0,.37,0,.56C117.18,72,117.2,71.53,117.21,71.09Z"/><path class="cls-3" d="M100.52,28.92l-.13-.14-2.64-2.46-3-2.23a37.86,37.86,0,0,1,3.61-6.2,1.36,1.36,0,0,1,.17.17,17.85,17.85,0,0,0-.13,2.21A18.73,18.73,0,0,0,100.52,28.92Z"/><polygon class="cls-4" points="34.97 46.8 34.65 46.78 34.86 46.78 34.97 46.8"/><path class="cls-3" d="M77.63,52.92l-6.26-4-.06,0-.68-.41c-.23-.13-.46-.28-.69-.43-.39-.25-.77-.5-1.13-.76L63.59,44A38.38,38.38,0,0,1,52.31,17.2V16a1.48,1.48,0,0,1,0-.21c0-1,.07-2,.16-3l0-.32c0-.28.05-.56.09-.83.09-.76.21-1.52.35-2.27A37.55,37.55,0,0,1,55.8.3c0-.1.08-.2.13-.3L56,.2a.93.93,0,0,0,.05.1A34.12,34.12,0,0,0,62,8.24c.58.57,1.19,1.15,1.85,1.71a34.13,34.13,0,0,0,4.28,3.12,34.15,34.15,0,0,0,6,2.91,36.56,36.56,0,0,0-1.75,5,1,1,0,0,0,0,.16l0,.12-.09.35c0,.13-.07.26-.1.39-.13.5-.24,1-.35,1.51s-.24,1.27-.34,1.91c-.06.39-.11.77-.16,1.16l-.09.84c-.05.45-.08.9-.11,1.35s0,.61-.05.91c0,.09,0,.18,0,.27,0,.33,0,.67,0,1v0a.27.27,0,0,0,0,.09,1.34,1.34,0,0,0,0,.2,36.76,36.76,0,0,0,.19,3.8c0,.59.12,1.17.21,1.75a34.5,34.5,0,0,0,.79,3.95c0,.22.1.43.17.65l0,.1c.18.72.4,1.41.64,2.11.1.31.21.63.33.94s.23.62.35.92l.09.21c.09.24.19.48.29.71s.26.6.4.89c.22.49.45,1,.7,1.44h0l.37.71c.18.35.38.7.59,1,.06.12.13.23.2.35s.29.49.45.74.45.71.68,1a0,0,0,0,1,0,0Z"/><polygon class="cls-4" points="34.97 46.8 34.65 46.78 34.86 46.78 34.97 46.8"/><path class="cls-5" d="M39,47.05h0Z"/><path class="cls-6" d="M117.16,72.4c0-.19,0-.38,0-.56s0-.51,0-.75C117.2,71.53,117.18,72,117.16,72.4Z"/><path class="cls-7" d="M117.16,72.4c0,.66-.07,1.37-.13,2.13h0C117.07,73.82,117.12,73.11,117.16,72.4Z"/><path class="cls-8" d="M117.23,69.44v.32c0,.29,0,.59,0,.88s0,.3,0,.45c0,.44,0,.87,0,1.31,0,.71-.09,1.42-.16,2.12h0a58.22,58.22,0,0,1-.81,5.84v0a56.46,56.46,0,0,1-1.49,6.13,57.8,57.8,0,0,1-2.52,6.76,56.82,56.82,0,0,1-5.52,9.65l-.33.47a56.9,56.9,0,0,1-7.45,8.43c-.66.62-1.33,1.22-2,1.81s-1.42,1.17-2.15,1.73l-.25.2-.56.41a55.83,55.83,0,0,1-5.68,3.7c-.2.13-.4.24-.6.35l-.16.08h0c-1,.58-2.08,1.12-3.16,1.62a56.24,56.24,0,0,1-11.19,3.94c-.61.15-1.22.28-1.83.4s-1.35.26-2,.38c-1.63.27-3.28.48-4.94.61s-3.06.19-4.61.19a59.41,59.41,0,0,1-8.91-.68l-1.29-.22a57.6,57.6,0,0,1-8.22-2.12q-.77-.26-1.53-.54l-.19-.07-.21-.08h0l-.07,0-.06,0c-.51-.19-1-.4-1.52-.61-1-.41-2-.85-3-1.33l-1-.49h0c0-.1,0-.2,0-.3,0-.63,0-1.3.07-2,0-.31,0-.63.06-1,0-.15,0-.31,0-.47s0-.47,0-.71l.13.08h0l.38.21c.32.18.64.36,1,.52s.74.39,1.11.56l0,0,1.08.5q.73.33,1.5.63l1.16.43c.46.17.92.32,1.39.47l1,.29c.57.17,1.14.31,1.72.45s1.35.3,2,.43l.12,0,1.06.17h0l.15,0,.16,0h0c.53.08,1.07.14,1.61.19l.29,0,.18,0h.15l.32,0,.47,0c.37,0,.75,0,1.12,0l1.14,0c1.2,0,2.39-.06,3.57-.17.39,0,.77-.07,1.15-.12s1-.13,1.49-.21l1.21-.22c.48-.09,1-.19,1.43-.31s1-.22,1.41-.36l.41-.11h0a4.42,4.42,0,0,0,.48-.15L65,120l.55-.17c.25-.08.48-.17.72-.26l.21-.07h.08l.08,0,.34-.12,0,0h0l.66-.26.14-.06.07,0c.76-.31,1.5-.64,2.23-1l1.09-.55a4.67,4.67,0,0,0,.49-.27A2.79,2.79,0,0,0,72,117l.64-.37c.47-.27.94-.55,1.39-.85q.34-.21.69-.45l.27-.19.42-.28.77-.56c.57-.41,1.12-.85,1.66-1.3l0,0c.22-.17.43-.35.64-.54s.55-.48.82-.73l0,0,0,0h0c.08-.08.16-.14.24-.23l.3-.28a2.5,2.5,0,0,0,.23-.23L81,110l.17-.18.61-.65c.27-.3.54-.6.8-.91.1-.11.19-.23.28-.34s.25-.29.36-.44l.13-.16s0,0,0,0a.79.79,0,0,0,.12-.15c.16-.19.32-.39.47-.59s.27-.37.4-.55.22-.29.32-.44.27-.38.4-.58c.29-.41.56-.83.82-1.25.13-.2.25-.39.36-.59s.16-.25.23-.38l.15-.25L87,102l0-.06c.1-.17.19-.34.28-.51s.23-.44.34-.66.25-.49.37-.73.19-.4.28-.6a0,0,0,0,0,0,0,1.19,1.19,0,0,0,.08-.16c.17-.37.33-.74.49-1.12,0-.1.09-.21.13-.32s.15-.36.21-.55.07-.17.11-.26c.1-.27.2-.53.29-.8s.18-.51.26-.77.24-.72.34-1.08l.06-.19c.07-.23.14-.45.2-.68l.3-1.18s0,0,0,0a1.74,1.74,0,0,0,0-.22c0-.13.06-.25.08-.38l.09-.37c0-.08,0-.16,0-.24,0-.26.1-.51.14-.77s.06-.31.09-.46c0,0,0,0,0,0a29.64,29.64,0,0,0,.37-3.16c0-.06,0-.12,0-.18v0a.17.17,0,0,0,0-.07v-.09s0,0,0,0v-.06c0-.09,0-.17,0-.26s0-.17,0-.26a.13.13,0,0,0,0-.06v-.1c0-.1,0-.51,0-.62v0a.17.17,0,0,0,0-.07V84.7a.81.81,0,0,0,0-.16v-.22a1.21,1.21,0,0,0,0-.19s0-.2,0-.22v0s0-.29,0-.51v-.26s0-.4,0-.66v-.12c0-.24,0-.48,0-.71a2.26,2.26,0,0,0,0-.26l0-.64c0-.11,0-.22,0-.32,0-.26,0-.52-.06-.77s0-.51-.07-.76v0c0-.23,0-.46-.08-.68a.13.13,0,0,0,0-.06c0-.23,0-.46-.09-.68s-.07-.49-.12-.73a.28.28,0,0,0,0-.09c0-.1,0-.2,0-.3s-.07-.37-.1-.55h0s0-.08,0-.12-.07-.32-.1-.48L91,74.89v0q-.12-.57-.27-1.14c-.06-.27-.13-.54-.2-.81,0,0,0,0,0,0-.07-.27-.15-.54-.23-.81s-.1-.35-.16-.53-.06-.21-.1-.31-.12-.38-.19-.57-.2-.6-.31-.89l-.18-.48c-.09-.24-.18-.47-.28-.7s-.22-.55-.34-.82c0,0,0,0,0,0-.1-.26-.22-.51-.33-.77a1.86,1.86,0,0,0-.1-.2c-.1-.23-.21-.45-.33-.68s-.13-.28-.2-.41-.13-.28-.21-.41-.28-.53-.43-.8c-.27-.51-.57-1-.87-1.51-.1-.17-.2-.33-.31-.49l-.15-.24-.48-.74-.2-.28-.1-.15c-.25-.37-.52-.73-.78-1.08l-.07-.09-.79-1,0,0c-.08-.1-.16-.21-.25-.31h0l-.3-.35-.3-.36c-.16-.19-.33-.38-.5-.56s-.49-.54-.74-.81l-.35-.35L80.7,56l-.17-.18c-1-1-1.92-2-2.9-2.85l-.18-.25a0,0,0,0,0,0,0c-.23-.34-.45-.69-.68-1s-.31-.5-.45-.74-.14-.23-.2-.35c-.21-.35-.41-.7-.59-1l-.37-.71h0c-.25-.47-.48-.95-.7-1.44-.14-.29-.27-.59-.4-.89s-.2-.47-.29-.71l-.09-.21c-.12-.3-.24-.61-.35-.92s-.23-.63-.33-.94c-.24-.7-.46-1.39-.64-2.11l0-.1c-.07-.22-.12-.43-.17-.65a34.5,34.5,0,0,1-.79-3.95c-.09-.58-.16-1.16-.21-1.75a36.76,36.76,0,0,1-.19-3.8,1.34,1.34,0,0,1,0-.2A.27.27,0,0,1,71,31v0c0-.33,0-.67,0-1,0-.09,0-.18,0-.27,0-.3,0-.6.05-.91s.06-.9.11-1.35l.09-.84c.05-.39.1-.77.16-1.16.1-.64.21-1.28.34-1.91s.22-1,.35-1.51c0-.13.06-.26.1-.39l.09-.35,0-.12a1,1,0,0,1,0-.16,36.56,36.56,0,0,1,1.75-5c.13-.32.27-.64.42-1l.36-.75,0,0c0-.08.08-.17.13-.25a33.91,33.91,0,0,1,2.19-3.79q.15-.26.33-.51A35.38,35.38,0,0,1,80.24,6,38.45,38.45,0,0,0,89.1,19.82l2.1,1.58-.34-.31c.23.14.45.29.67.44l0,0a.36.36,0,0,1,0,.09l3.26,2.45,3,2.23,2.64,2.46.13.14a55.53,55.53,0,0,1,4.15,4.65A57.21,57.21,0,0,1,113,47.77v0A57.23,57.23,0,0,1,117.23,69.44Z"/><path class="cls-1" d="M91.53,21.53l0,0a.36.36,0,0,1,0,.09s0,0,0,0l-.31-.28-.34-.31C91.09,21.23,91.31,21.38,91.53,21.53Z"/><path class="cls-1" d="M64.47,120.18a4.42,4.42,0,0,1-.48.15h0l-.41.11.41-.12Z"/><path class="cls-1" d="M91.56,21.55a.36.36,0,0,1,0,.09s0,0,0,0l-.31-.28-.34-.31c.23.14.45.29.67.44Z"/><polygon class="cls-1" points="34.97 46.8 34.65 46.78 34.86 46.78 34.97 46.8"/><path class="cls-1" d="M91.56,21.55a.36.36,0,0,1,0,.09s0,0,0,0l-.31-.28-.34-.31c.23.14.45.29.67.44Z"/><path class="cls-1" d="M39,47.05h0Z"/><path class="cls-1" d="M117.16,72.4c0,.66-.07,1.37-.13,2.13h0C117.07,73.82,117.12,73.11,117.16,72.4Z"/><path class="cls-1" d="M117.21,71.09c0,.24,0,.49,0,.75s0,.37,0,.56C117.18,72,117.2,71.53,117.21,71.09Z"/><path class="cls-8" d="M77.72,97.63l-.46,4.66-.55.27c-.9.43-1.81.83-2.75,1.17-.47.19-.94.35-1.41.51l-.2.07-.22.07-.33.11-.15,0-.38.12-.38.11-.16,0-.52.14c.36-.19.72-.4,1.07-.62A18.88,18.88,0,0,0,77.72,97.63Z"/><path class="cls-3" d="M21.67,75.94l-.1.08a39.09,39.09,0,0,0-6,2.45l-.76.41c.06-.64.14-1.33.25-2l.06-.36c.17-1,.39-2,.62-2.83a.83.83,0,0,1,0-.15h0l.18-.64h0a6.13,6.13,0,0,1,.18-.61s0,0,0,0h0c0-.14.09-.27.13-.4v0l.21-.64c.15-.46.32-.93.49-1.39,0,0,0-.07,0-.11l.21-.52,0,0c.06-.16.12-.32.19-.47s.19-.46.29-.69.18-.43.28-.63l.12-.26c.3-.65.61-1.28.94-1.9s.57-1,.86-1.52h0l.24-.41h0l.15-.25c.13-.19.25-.38.37-.57l0,0,.39-.59h0s0,0,0,0a.35.35,0,0,0,.05-.08l0-.06.29-.43a.28.28,0,0,0,0,.09c-.09.48-.16,1-.22,1.44v0c-.07.43-.12.87-.16,1.31s-.1.88-.12,1.33-.06.87-.08,1.32,0,.92,0,1.38v.35a40,40,0,0,0,.53,6.34C21.5,75.1,21.58,75.51,21.67,75.94Z"/><polygon class="cls-4" points="34.97 46.8 34.65 46.78 34.86 46.78 34.97 46.8"/><polygon class="cls-4" points="34.97 46.8 34.65 46.78 34.86 46.78 34.97 46.8"/><path class="cls-5" d="M39,47.05h0Z"/><path class="cls-3" d="M90.94,90.66c0,.26-.09.51-.14.77,0,.08,0,.16,0,.24l-.09.37c0,.13,0,.25-.08.38a1.74,1.74,0,0,1,0,.22s0,0,0,0l-.3,1.18c-.06.23-.13.45-.2.68l-.06.19c-.1.36-.21.72-.34,1.08s-.17.51-.26.77-.19.53-.29.8c0,.09-.07.18-.11.26s-.14.37-.21.55-.09.22-.13.32c-.16.38-.32.75-.49,1.12a1.19,1.19,0,0,1-.08.16,0,0,0,0,1,0,0c-.09.2-.18.4-.28.6s-.24.49-.37.73-.22.44-.34.66-.18.34-.28.51l0,.06-.28.5-.15.25c-.07.13-.15.25-.23.38s-.23.39-.36.59c-.26.42-.53.84-.82,1.25-.13.2-.26.39-.4.58s-.21.29-.32.44-.26.37-.4.55-.31.4-.47.59a.79.79,0,0,1-.12.15s0,0,0,0l-.13.16c-.11.15-.23.29-.36.44s-.18.23-.28.34c-.26.31-.53.61-.8.91l-.61.65-.17.18c-.26.27-.54.55-.81.81a2.5,2.5,0,0,1-.23.23l-.3.28c-.08.09-.16.15-.24.23h0l0,0,0,0c-.27.25-.54.5-.82.73s-.42.37-.64.54l0,0c-.54.45-1.09.89-1.66,1.3l-.77.56-.42.28-.27.19q-.35.24-.69.45c-.45.3-.92.58-1.39.85l-.64.37a2.79,2.79,0,0,1-.34.18,4.67,4.67,0,0,1-.49.27l-1.09.55c-.73.36-1.47.69-2.23,1l-.07,0-.14.06-.66.26h0l0,0-.34.12-.08,0h-.08l-.21.07c-.24.09-.47.18-.72.26l-.55.17-.49.15-.49.14-.41.12q-.7.19-1.41.36c-.48.12-.95.22-1.43.31l-1.21.22c-.5.08-1,.15-1.49.21s-.76.09-1.15.12c-1.18.11-2.37.17-3.57.17l-1.14,0c-.37,0-.75,0-1.12-.05l-.47,0-.32,0h-.15l-.18,0-.29,0c-.54,0-1.08-.11-1.61-.19h0l-.16,0-.15,0h0l-1.06-.17-.12,0c-.68-.13-1.36-.27-2-.43s-1.15-.28-1.72-.45l-1-.29c-.47-.15-.93-.3-1.39-.47L39,119.5q-.76-.3-1.5-.63l-1.08-.5,0,0c-.37-.17-.74-.36-1.11-.56s-.64-.34-1-.52l-.38-.21h0l-.13-.08h0c0-.29.05-.58.08-.87v0l0-.34c0-.37.07-.74.11-1.13.1-.92.22-1.88.37-2.86,0-.35.11-.71.16-1.07s.14-.81.21-1.23.21-1.12.32-1.7l0-.14c.07-.32.13-.66.21-1s.17-.77.26-1.15c.14-.63.3-1.27.47-1.91.07-.28.14-.56.22-.84.15-.53.3-1.07.46-1.61l.18-.62-.54-.38c.39-1.23.82-2.48,1.3-3.75a77.25,77.25,0,0,1,10-18.54,37.11,37.11,0,0,0-7.09-2.27,38.3,38.3,0,0,1,8.14-.87h0c.67,0,1.35,0,2,0a38.3,38.3,0,0,1,12,2.57c.35.13.69.27,1,.42l.24.1-.34.38a55.12,55.12,0,0,0-5.18,6.6A56.66,56.66,0,0,0,51.4,99.47c-.14.45-.28.89-.41,1.35-.43,1.49-.81,3-1.12,4.55l.7.17a35.5,35.5,0,0,0,4.14.75c.45.06.91.11,1.37.15l.34,0,.32,0,.32,0,.42,0,.67,0h2.36a39.36,39.36,0,0,0,6.66-.77l.28-.06c.67-.14,1.33-.3,2-.48l.52-.14.16,0,.38-.11.38-.12.15,0,.33-.11.22-.07.2-.07c.47-.16.94-.32,1.41-.51.94-.34,1.85-.74,2.75-1.17l.55-.27c1-.47,1.93-1,2.86-1.55a37.54,37.54,0,0,0,5.51-4c.53-.47,1.06-1,1.56-1.45a39.41,39.41,0,0,0,4.45-5.2A2.17,2.17,0,0,1,90.94,90.66Z"/><path class="cls-9" d="M117.16,72.4c0-.19,0-.38,0-.56s0-.51,0-.75C117.2,71.53,117.18,72,117.16,72.4Z"/><path class="cls-10" d="M117.16,72.4c0,.66-.07,1.37-.13,2.13h0C117.07,73.82,117.12,73.11,117.16,72.4Z"/><path class="cls-8" d="M2.53,64.59c0,.17,0,.34,0,.51l0-.27s0-.09,0-.13a.57.57,0,0,0,0-.13Z"/><path class="cls-8" d="M48.76,76.83a77.25,77.25,0,0,0-10,18.54c-.48,1.27-.91,2.52-1.3,3.75-.18.55-.34,1.1-.5,1.64s-.31,1.08-.46,1.61c-.08.28-.15.56-.22.84-.17.64-.33,1.28-.47,1.91-.1.39-.18.77-.26,1.15s-.14.67-.21,1l0,.14c-.12.58-.22,1.14-.32,1.7s-.14.83-.21,1.23-.11.72-.16,1.07c-.15,1-.27,1.94-.37,2.86,0,.39-.08.76-.11,1.13l0,.34v0c0,.29-.06.58-.08.87h0c0,.24,0,.48,0,.71s0,.32,0,.47c0,.32,0,.64-.06,1,0,.7-.06,1.37-.07,2,0,.1,0,.2,0,.3-1.33-.67-2.64-1.39-3.91-2.17a57.74,57.74,0,0,1-9.31-7.06c-.34-.31-.68-.63-1-1l-.38-.37-.08-.08c-1-1-1.91-2-2.81-3l-.74-.87-.09-.11,0,0c-.33-.4-.65-.8-1-1.21s-.8-1-1.18-1.57c-.25-.34-.48-.68-.72-1a56.62,56.62,0,0,1-7.7-15.72l0,0A60.49,60.49,0,0,1,2.58,75.79c-.23-2.38-.27-4.47-.28-5.08,0-1.94,0-3.69.15-5.19a2.85,2.85,0,0,1,0-.29s0-.09,0-.13l0-.27s0-.09,0-.13a.57.57,0,0,0,0-.13.88.88,0,0,0,0-.16c0-.16,0-.32,0-.48a56.53,56.53,0,0,1,4.26-16q-.29-.33-.6-.63A18.81,18.81,0,0,0,0,43.1v0c.47-.46,1-.9,1.43-1.34A38.71,38.71,0,0,1,13.17,34.6c.77-.29,1.55-.56,2.35-.81a38.74,38.74,0,0,1,8.17-1.59c1.08-.09,2.17-.14,3.28-.14h.33l1.71.08c3.26.51,7.59,1.69,10.91,4.44.58.48,1.07,1,1.14,1a18.91,18.91,0,0,1,5.5,11.85,39.57,39.57,0,0,0-7.1-1.6l-.43,0H39l-.56,0-.48,0-.75.33A38.53,38.53,0,0,0,25.81,56l-.42.42a5.49,5.49,0,0,0-.41.44c-.27.29-.53.59-.8.9A26.65,26.65,0,0,0,21.9,60.9a.28.28,0,0,1,0-.09l-.29.43a.21.21,0,0,1,0,.06.35.35,0,0,1,0,.08v0h0l-.39.59,0,0c-.12.19-.24.38-.37.57l-.15.25h0l-.24.41h0c-.29.5-.58,1-.86,1.52s-.64,1.25-.94,1.9l-.12.26c-.1.2-.19.42-.28.63s-.2.46-.29.69-.13.31-.19.47l0,.05-.21.52s0,.07,0,.11c-.17.46-.34.93-.49,1.39l-.21.64v0c0,.13-.09.26-.13.4h0s0,0,0,0a6.13,6.13,0,0,0-.18.61h0l-.18.64h0a.83.83,0,0,0,0,.15c-.23.86-.45,1.8-.62,2.83l-.06.36h0v0a0,0,0,0,1,0,0c-.09.6-.16,1.18-.22,1.73.22-.12.46-.23.68-.36a39.09,39.09,0,0,1,6-2.45l.1,0a38.72,38.72,0,0,1,19.67-.88A37.11,37.11,0,0,1,48.76,76.83Z"/></g></g></g></svg>