<svg id="optimized_outline_simplified" data-name="optimized outline simplified" xmlns="http://www.w3.org/2000/svg" viewBox="0 0 310.70962 336.14222"><defs><style>.cls-1{fill:#fff;}</style></defs><path class="cls-1" d="M510.7,348.48c2.23,110.53-121.91,186.16-218.64,135.54q-.06-4.68.13-9.24c29.97,17.15,72.44,16.31,101.71-2.08v-.01c25.17-14.48,42.24-40.16,47.98-68.15.06-.08.12-.17.18-.26a102.45468,102.45468,0,0,0,1.74-13.95c.03-.33.04-.66.06-.98a102.53146,102.53146,0,0,0,.04-10.52c-.02-.61-.05-1.22-.1-1.83-.07-1.19-.18-2.4-.31-3.6-.01-.07-.01-.14-.02-.2-.04-.39-.08-.78-.14-1.18a94.12255,94.12255,0,0,0-5.48-22.55,97.86646,97.86646,0,0,0-14.66-27.06,81.41024,81.41024,0,0,0-16.63-17.62.50084.50084,0,0,1-.08-.07,31.876,31.876,0,0,1-2.99-4.3c-.01-.02-.03-.04-.03-.06-3.47-6.9-8.92-21.24-11.41-38,0-.03-.01-.06-.01-.08-1.75-15.27-.91-32.68,4.95-49.48.51-1.17,1.06-2.33,1.65-3.47l-.3-.15a90.3221,90.3221,0,0,1,17.81-28.37,100.61388,100.61388,0,0,0-17.38,28.22,117.78359,117.78359,0,0,1,17.38-28.22s13.28,29.47,27.26,41.81c.36.24.73.48,1.09.72.98.67,1.98,1.36,2.98,2.07q2.34,1.665,4.7,3.53c.54.42,1.07.84,1.6,1.27.64.53,1.28,1.06,1.93,1.6q.87.735,1.74,1.5h.01a122.36569,122.36569,0,0,1,12.89,13.09.02151.02151,0,0,1,.02.02C492.93,270.3,506.6,292.31,510.7,348.48Z" transform="translate(-200.02 -163.93)"/><path class="cls-1" d="M460.18,235.76c-.91-.84-1.81-1.66-2.72-2.45h-.01q-.87-.78-1.74-1.5c-.65-.54-1.29-1.07-1.93-1.6-.53-.43-1.07-.86-1.6-1.27q-2.355-1.86-4.7-3.53c-1-.72-2-1.41-2.98-2.07-.36-.24-.73-.48-1.09-.72q2.685-7.155,5.38-14.31C449.94,217.27,454.13,228.27,460.18,235.76Z" transform="translate(-200.02 -163.93)"/><path class="cls-1" d="M407.81,435.68a100.00545,100.00545,0,0,0,34.07-31.14c-5.74,27.99-22.81,53.67-47.98,68.15v.01c-29.27,18.39-71.74,19.23-101.71,2.08q-.195,4.56-.13,9.24c-.49-18.36,2.78-37.12,8.56-54.97a98.9919,98.9919,0,0,0,36.17,16.59c18.94,5.3,41.58,3.38,56.78-8.21a47.51993,47.51993,0,0,1-20.12,9.79A98.67469,98.67469,0,0,0,407.81,435.68Z" transform="translate(-200.02 -163.93)"/><path class="cls-1" d="M408.92,414.44a101.12181,101.12181,0,0,1-.35,15.37c-.13,1.32-.29,2.63-.47,3.93-.09.65-.19,1.3-.29,1.94a98.67469,98.67469,0,0,1-34.36,11.54,47.51993,47.51993,0,0,0,20.12-9.79A42.27241,42.27241,0,0,0,408.92,414.44Z" transform="translate(-200.02 -163.93)"/><path class="cls-1" d="M403.49,300.42a29.65259,29.65259,0,0,0,1.9,3.36c-23.36-20.17-34.91-15.81-53.99-49.15a.5896.5896,0,0,1-.04-.08c-7.01-14.04-10.14-30.17-9.46-46.88,0-.12.01-.23.02-.34.11-1.84.27-3.67.47-5.48q-.18,1.44-.33,3a122.2821,122.2821,0,0,1,10.2-40.92,100.00647,100.00647,0,0,0,46.08,45.25c-.48,1.21-.93,2.41-1.35,3.62-7,15.87-7.28,33.75-4.95,49.48,0,.02.01.05.01.08,1.86,16.15,6.62,29.91,11.41,38C403.46,300.38,403.48,300.4,403.49,300.42Z" transform="translate(-200.02 -163.93)"/><path class="cls-1" d="M376.03,368.9a99.71187,99.71187,0,0,0-39.24,76.74,98.9919,98.9919,0,0,1-36.17-16.59,208.13454,208.13454,0,0,1,10.37-25.9c.12-.26.25-.52.38-.79a226.91341,226.91341,0,0,1,18.08-30.55c.37-.51.73-1.02,1.09-1.51.36-.5.72-.99,1.08-1.48a96.62883,96.62883,0,0,0-16.01-5.35c-1.21-.31-2.43-.61-3.66-.89C332.82,357.54,356.87,359.93,376.03,368.9Z" transform="translate(-200.02 -163.93)"/><path class="cls-1" d="M331.62,368.82c-.36.49-.72.98-1.08,1.48-.37.5-.74,1-1.09,1.51a210.38463,210.38463,0,0,0-18.08,30.55c-.13.27-.26.53-.38.79a190.22939,190.22939,0,0,0-10.43,25.86c.02.01.04.03.06.04-5.78,17.85-9.05,36.61-8.56,54.97a151.78349,151.78349,0,0,1-76.59-88.69A98.985,98.985,0,0,1,239,373.95v-.01a86.4749,86.4749,0,0,1,21.85-10.05v-.01a104.90121,104.90121,0,0,1,21.31-3.72c.36-.03.71-.05,1.06-.06a111.17528,111.17528,0,0,1,28.7,2.49c1.3.3,2.53.59,3.69.88A133.59968,133.59968,0,0,1,331.62,368.82Z" transform="translate(-200.02 -163.93)"/><path class="cls-1" d="M322.15,281.82c.18.51.34,1.03.5,1.55a102.52874,102.52874,0,0,0-57.27,31.76v.01l-.01.01A102.25665,102.25665,0,0,0,239,373.94v.01a98.985,98.985,0,0,0-23.53,21.38c-11.07-33.07-9.55-72.56,3.98-104.49a36.43174,36.43174,0,0,0-19.43-13.76c15.2-10.82,29.86-19.05,41.82-23.89,24.85-11.31,49.47-9.6,65.64,5.14A63.80557,63.80557,0,0,1,322.15,281.82Z" transform="translate(-200.02 -163.93)"/><path class="cls-1" d="M260.85,363.88v.01A86.4749,86.4749,0,0,0,239,373.94a102.25665,102.25665,0,0,1,26.37-58.79A100.20635,100.20635,0,0,0,260.85,363.88Z" transform="translate(-200.02 -163.93)"/></svg>